<svg xmlns="http://www.w3.org/2000/svg" xmlns:xlink="http://www.w3.org/1999/xlink" width="500" zoomAndPan="magnify" viewBox="0 0 375 374.999991" height="500" preserveAspectRatio="xMidYMid meet" version="1.0"><defs><clipPath id="dccd4e4459"><path d="M 86 125.054688 L 302.640625 125.054688 L 302.640625 250.304688 L 86 250.304688 Z M 86 125.054688 " clip-rule="nonzero"/></clipPath><clipPath id="448eea3188"><path d="M 258 218 L 317.847656 218 L 317.847656 285 L 258 285 Z M 258 218 " clip-rule="nonzero"/></clipPath><clipPath id="ac7d58bd5a"><path d="M 278 211.566406 L 284 211.566406 L 284 224 L 278 224 Z M 278 211.566406 " clip-rule="nonzero"/></clipPath><clipPath id="083eba64e6"><path d="M 285 211.566406 L 291 211.566406 L 291 224 L 285 224 Z M 285 211.566406 " clip-rule="nonzero"/></clipPath><clipPath id="25cb9a5b42"><path d="M 274 211.566406 L 294 211.566406 L 294 217 L 274 217 Z M 274 211.566406 " clip-rule="nonzero"/></clipPath><clipPath id="59067a81dc"><path d="M 247.347656 247 L 273 247 L 273 253 L 247.347656 253 Z M 247.347656 247 " clip-rule="nonzero"/></clipPath></defs><g clip-path="url(#dccd4e4459)"><path fill="#ffffff" d="M 296.796875 178.914062 L 206.964844 126.976562 C 203.726562 125.105469 199.734375 125.105469 196.488281 126.976562 C 193.246094 128.847656 191.25 132.320312 191.25 136.066406 L 191.25 178.703125 L 101.792969 126.976562 C 98.546875 125.105469 94.558594 125.105469 91.3125 126.976562 C 88.070312 128.847656 86.074219 132.320312 86.074219 136.066406 L 86.074219 239.949219 C 86.074219 243.695312 88.070312 247.160156 91.3125 249.03125 C 92.9375 249.96875 94.742188 250.441406 96.550781 250.441406 C 98.359375 250.441406 100.167969 249.96875 101.789062 249.03125 L 191.242188 197.3125 L 191.242188 239.949219 C 191.242188 243.695312 193.234375 247.160156 196.480469 249.03125 C 198.101562 249.96875 199.914062 250.441406 201.71875 250.441406 C 203.523438 250.441406 205.339844 249.96875 206.953125 249.03125 L 296.785156 197.09375 C 300.027344 195.222656 302.023438 191.753906 302.023438 188.003906 C 302.035156 184.257812 300.039062 180.789062 296.796875 178.914062 Z M 296.796875 178.914062 " fill-opacity="1" fill-rule="nonzero"/></g><g clip-path="url(#448eea3188)"><path fill="#ffffff" d="M 266.347656 229.628906 C 271.214844 225.710938 277.40625 223.359375 284.144531 223.359375 C 299.777344 223.359375 312.472656 236 312.472656 251.5625 C 312.472656 267.128906 299.777344 279.769531 284.144531 279.769531 C 275.761719 279.769531 268.226562 276.132812 263.039062 270.367188 C 262.089844 269.308594 260.460938 269.222656 259.402344 270.164062 C 258.34375 271.109375 258.253906 272.730469 259.199219 273.785156 C 265.332031 280.605469 274.238281 284.894531 284.144531 284.894531 C 302.621094 284.894531 317.621094 269.960938 317.621094 251.5625 C 317.621094 233.167969 302.621094 218.234375 284.144531 218.234375 C 276.179688 218.234375 268.859375 221.007812 263.109375 225.640625 C 262.003906 226.53125 261.832031 228.148438 262.726562 229.246094 C 263.621094 230.347656 265.242188 230.515625 266.347656 229.628906 Z M 266.347656 229.628906 " fill-opacity="1" fill-rule="evenodd"/></g><g clip-path="url(#ac7d58bd5a)"><path fill="#ffffff" d="M 283.285156 220.796875 L 283.285156 213.960938 C 283.285156 212.542969 282.132812 211.394531 280.710938 211.394531 C 279.289062 211.394531 278.136719 212.542969 278.136719 213.960938 L 278.136719 220.796875 C 278.136719 222.210938 279.289062 223.359375 280.710938 223.359375 C 282.132812 223.359375 283.285156 222.210938 283.285156 220.796875 Z M 283.285156 220.796875 " fill-opacity="1" fill-rule="evenodd"/></g><g clip-path="url(#083eba64e6)"><path fill="#ffffff" d="M 290.152344 220.796875 L 290.152344 213.960938 C 290.152344 212.542969 289 211.394531 287.578125 211.394531 C 286.15625 211.394531 285.003906 212.542969 285.003906 213.960938 L 285.003906 220.796875 C 285.003906 222.210938 286.15625 223.359375 287.578125 223.359375 C 289 223.359375 290.152344 222.210938 290.152344 220.796875 Z M 290.152344 220.796875 " fill-opacity="1" fill-rule="evenodd"/></g><path fill="#ffffff" d="M 306.566406 229.445312 L 311.421875 224.613281 C 312.425781 223.609375 312.425781 221.988281 311.421875 220.984375 C 310.417969 219.988281 308.785156 219.988281 307.78125 220.984375 L 302.925781 225.820312 C 301.917969 226.820312 301.917969 228.449219 302.925781 229.445312 C 303.929688 230.449219 305.5625 230.449219 306.566406 229.445312 Z M 306.566406 229.445312 " fill-opacity="1" fill-rule="evenodd"/><path fill="#ffffff" d="M 315.148438 224.113281 L 308.28125 217.277344 C 307.28125 216.273438 305.644531 216.273438 304.640625 217.277344 C 303.636719 218.273438 303.636719 219.902344 304.640625 220.898438 L 311.507812 227.738281 C 312.511719 228.738281 314.144531 228.738281 315.148438 227.738281 C 316.15625 226.738281 316.15625 225.109375 315.148438 224.113281 Z M 315.148438 224.113281 " fill-opacity="1" fill-rule="evenodd"/><g clip-path="url(#25cb9a5b42)"><path fill="#ffffff" d="M 277.277344 216.523438 L 291.011719 216.523438 C 292.433594 216.523438 293.585938 215.375 293.585938 213.960938 C 293.585938 212.542969 292.433594 211.394531 291.011719 211.394531 L 277.277344 211.394531 C 275.855469 211.394531 274.703125 212.542969 274.703125 213.960938 C 274.703125 215.375 275.855469 216.523438 277.277344 216.523438 Z M 277.277344 216.523438 " fill-opacity="1" fill-rule="evenodd"/></g><path fill="#ffffff" d="M 281.570312 232.761719 L 281.570312 249.855469 C 281.570312 250.535156 281.839844 251.1875 282.324219 251.667969 L 292.625 261.921875 C 293.628906 262.925781 295.261719 262.925781 296.265625 261.921875 C 297.269531 260.925781 297.269531 259.296875 296.265625 258.300781 L 286.71875 248.792969 C 286.71875 248.792969 286.71875 232.761719 286.71875 232.761719 C 286.71875 231.347656 285.566406 230.199219 284.144531 230.199219 C 282.722656 230.199219 281.570312 231.347656 281.570312 232.761719 Z M 281.570312 232.761719 " fill-opacity="1" fill-rule="evenodd"/><g clip-path="url(#59067a81dc)"><path fill="#ffffff" d="M 249.808594 252.417969 L 270.410156 252.417969 C 271.832031 252.417969 272.984375 251.269531 272.984375 249.855469 C 272.984375 248.441406 271.832031 247.292969 270.410156 247.292969 L 249.808594 247.292969 C 248.386719 247.292969 247.234375 248.441406 247.234375 249.855469 C 247.234375 251.269531 248.386719 252.417969 249.808594 252.417969 Z M 249.808594 252.417969 " fill-opacity="1" fill-rule="evenodd"/></g><path fill="#ffffff" d="M 260.109375 240.453125 L 270.410156 240.453125 C 271.832031 240.453125 272.984375 239.304688 272.984375 237.890625 C 272.984375 236.472656 271.832031 235.324219 270.410156 235.324219 L 260.109375 235.324219 C 258.6875 235.324219 257.535156 236.472656 257.535156 237.890625 C 257.535156 239.304688 258.6875 240.453125 260.109375 240.453125 Z M 260.109375 240.453125 " fill-opacity="1" fill-rule="evenodd"/><path fill="#ffffff" d="M 260.109375 264.382812 L 270.410156 264.382812 C 271.832031 264.382812 272.984375 263.234375 272.984375 261.820312 C 272.984375 260.40625 271.832031 259.257812 270.410156 259.257812 L 260.109375 259.257812 C 258.6875 259.257812 257.535156 260.40625 257.535156 261.820312 C 257.535156 263.234375 258.6875 264.382812 260.109375 264.382812 Z M 260.109375 264.382812 " fill-opacity="1" fill-rule="evenodd"/></svg>