<svg xmlns="http://www.w3.org/2000/svg" xmlns:xlink="http://www.w3.org/1999/xlink" width="500" zoomAndPan="magnify" viewBox="0 0 375 374.999991" height="500" preserveAspectRatio="xMidYMid meet" version="1.0"><defs><clipPath id="f14df51a45"><path d="M 85.140625 125.054688 L 302 125.054688 L 302 250.304688 L 85.140625 250.304688 Z M 85.140625 125.054688 " clip-rule="nonzero"/></clipPath><clipPath id="6264abedff"><path d="M 102 211.566406 L 108 211.566406 L 108 224 L 102 224 Z M 102 211.566406 " clip-rule="nonzero"/></clipPath><clipPath id="9ff110eb4a"><path d="M 95 211.566406 L 101 211.566406 L 101 224 L 95 224 Z M 95 211.566406 " clip-rule="nonzero"/></clipPath><clipPath id="ce9910de1c"><path d="M 92 211.566406 L 111 211.566406 L 111 217 L 92 217 Z M 92 211.566406 " clip-rule="nonzero"/></clipPath><clipPath id="614baa2d8e"><path d="M 112 247 L 138.320312 247 L 138.320312 253 L 112 253 Z M 112 247 " clip-rule="nonzero"/></clipPath></defs><g clip-path="url(#f14df51a45)"><path fill="#ffffff" d="M 90.679688 178.914062 L 180.511719 126.976562 C 183.75 125.105469 187.742188 125.105469 190.988281 126.976562 C 194.230469 128.847656 196.226562 132.320312 196.226562 136.066406 L 196.226562 178.703125 L 285.683594 126.976562 C 288.929688 125.105469 292.917969 125.105469 296.164062 126.976562 C 299.40625 128.847656 301.402344 132.320312 301.402344 136.066406 L 301.402344 239.949219 C 301.402344 243.691406 299.40625 247.160156 296.164062 249.03125 C 294.539062 249.96875 292.734375 250.441406 290.925781 250.441406 C 289.117188 250.441406 287.308594 249.96875 285.6875 249.03125 L 196.234375 197.3125 L 196.234375 239.949219 C 196.234375 243.691406 194.242188 247.160156 190.996094 249.03125 C 189.375 249.96875 187.5625 250.441406 185.757812 250.441406 C 183.953125 250.441406 182.136719 249.96875 180.523438 249.03125 L 90.691406 197.09375 C 87.449219 195.222656 85.453125 191.753906 85.453125 188.003906 C 85.441406 184.257812 87.4375 180.789062 90.679688 178.914062 Z M 90.679688 178.914062 " fill-opacity="1" fill-rule="nonzero"/></g><path fill="#ffffff" d="M 119.320312 229.628906 C 114.457031 225.710938 108.265625 223.359375 101.523438 223.359375 C 85.894531 223.359375 73.199219 236 73.199219 251.5625 C 73.199219 267.128906 85.894531 279.769531 101.523438 279.769531 C 109.90625 279.769531 117.441406 276.132812 122.628906 270.367188 C 123.578125 269.308594 125.210938 269.222656 126.265625 270.164062 C 127.328125 271.109375 127.417969 272.730469 126.46875 273.785156 C 120.335938 280.605469 111.429688 284.894531 101.523438 284.894531 C 83.050781 284.894531 68.050781 269.960938 68.050781 251.5625 C 68.050781 233.167969 83.050781 218.234375 101.523438 218.234375 C 109.492188 218.234375 116.8125 221.007812 122.558594 225.640625 C 123.664062 226.53125 123.835938 228.148438 122.941406 229.246094 C 122.046875 230.347656 120.425781 230.515625 119.320312 229.628906 Z M 119.320312 229.628906 " fill-opacity="1" fill-rule="evenodd"/><g clip-path="url(#6264abedff)"><path fill="#ffffff" d="M 102.382812 220.796875 L 102.382812 213.960938 C 102.382812 212.542969 103.539062 211.394531 104.957031 211.394531 C 106.378906 211.394531 107.535156 212.542969 107.535156 213.960938 L 107.535156 220.796875 C 107.535156 222.210938 106.378906 223.359375 104.957031 223.359375 C 103.539062 223.359375 102.382812 222.210938 102.382812 220.796875 Z M 102.382812 220.796875 " fill-opacity="1" fill-rule="evenodd"/></g><g clip-path="url(#9ff110eb4a)"><path fill="#ffffff" d="M 95.515625 220.796875 L 95.515625 213.960938 C 95.515625 212.542969 96.671875 211.394531 98.089844 211.394531 C 99.511719 211.394531 100.667969 212.542969 100.667969 213.960938 L 100.667969 220.796875 C 100.667969 222.210938 99.511719 223.359375 98.089844 223.359375 C 96.671875 223.359375 95.515625 222.210938 95.515625 220.796875 Z M 95.515625 220.796875 " fill-opacity="1" fill-rule="evenodd"/></g><path fill="#ffffff" d="M 79.105469 229.445312 L 74.246094 224.613281 C 73.242188 223.609375 73.242188 221.988281 74.246094 220.984375 C 75.253906 219.988281 76.882812 219.988281 77.890625 220.984375 L 82.746094 225.820312 C 83.75 226.820312 83.75 228.449219 82.746094 229.445312 C 81.742188 230.449219 80.105469 230.449219 79.105469 229.445312 Z M 79.105469 229.445312 " fill-opacity="1" fill-rule="evenodd"/><path fill="#ffffff" d="M 70.519531 224.113281 L 77.386719 217.277344 C 78.390625 216.273438 80.023438 216.273438 81.027344 217.277344 C 82.035156 218.273438 82.035156 219.902344 81.027344 220.898438 L 74.160156 227.738281 C 73.15625 228.738281 71.523438 228.738281 70.519531 227.738281 C 69.515625 226.738281 69.515625 225.109375 70.519531 224.113281 Z M 70.519531 224.113281 " fill-opacity="1" fill-rule="evenodd"/><g clip-path="url(#ce9910de1c)"><path fill="#ffffff" d="M 108.390625 216.523438 L 94.660156 216.523438 C 93.238281 216.523438 92.082031 215.375 92.082031 213.960938 C 92.082031 212.542969 93.238281 211.394531 94.660156 211.394531 L 108.390625 211.394531 C 109.8125 211.394531 110.96875 212.542969 110.96875 213.960938 C 110.96875 215.375 109.8125 216.523438 108.390625 216.523438 Z M 108.390625 216.523438 " fill-opacity="1" fill-rule="evenodd"/></g><path fill="#ffffff" d="M 104.101562 232.761719 L 104.101562 249.855469 C 104.101562 250.535156 103.828125 251.1875 103.34375 251.667969 L 93.042969 261.921875 C 92.042969 262.925781 90.40625 262.925781 89.40625 261.921875 C 88.398438 260.925781 88.398438 259.296875 89.40625 258.300781 L 98.949219 248.792969 C 98.949219 248.792969 98.949219 232.761719 98.949219 232.761719 C 98.949219 231.347656 100.105469 230.199219 101.523438 230.199219 C 102.945312 230.199219 104.101562 231.347656 104.101562 232.761719 Z M 104.101562 232.761719 " fill-opacity="1" fill-rule="evenodd"/><g clip-path="url(#614baa2d8e)"><path fill="#ffffff" d="M 135.859375 252.417969 L 115.257812 252.417969 C 113.835938 252.417969 112.683594 251.269531 112.683594 249.855469 C 112.683594 248.441406 113.835938 247.292969 115.257812 247.292969 L 135.859375 247.292969 C 137.28125 247.292969 138.433594 248.441406 138.433594 249.855469 C 138.433594 251.269531 137.28125 252.417969 135.859375 252.417969 Z M 135.859375 252.417969 " fill-opacity="1" fill-rule="evenodd"/></g><path fill="#ffffff" d="M 125.558594 240.453125 L 115.257812 240.453125 C 113.835938 240.453125 112.683594 239.304688 112.683594 237.890625 C 112.683594 236.476562 113.835938 235.324219 115.257812 235.324219 L 125.558594 235.324219 C 126.980469 235.324219 128.132812 236.476562 128.132812 237.890625 C 128.132812 239.304688 126.980469 240.453125 125.558594 240.453125 Z M 125.558594 240.453125 " fill-opacity="1" fill-rule="evenodd"/><path fill="#ffffff" d="M 125.558594 264.382812 L 115.257812 264.382812 C 113.835938 264.382812 112.683594 263.234375 112.683594 261.820312 C 112.683594 260.40625 113.835938 259.257812 115.257812 259.257812 L 125.558594 259.257812 C 126.980469 259.257812 128.132812 260.40625 128.132812 261.820312 C 128.132812 263.234375 126.980469 264.382812 125.558594 264.382812 Z M 125.558594 264.382812 " fill-opacity="1" fill-rule="evenodd"/></svg>