<svg xmlns="http://www.w3.org/2000/svg" xmlns:xlink="http://www.w3.org/1999/xlink" width="500" zoomAndPan="magnify" viewBox="0 0 375 374.999991" height="500" preserveAspectRatio="xMidYMid meet" version="1.0"><defs><clipPath id="b1f12a2f36"><path d="M 55.539062 55.539062 L 319.539062 55.539062 L 319.539062 319.539062 L 55.539062 319.539062 Z M 55.539062 55.539062 " clip-rule="nonzero"/></clipPath></defs><g clip-path="url(#b1f12a2f36)"><path fill="#000000" d="M 187.597656 55.539062 C 185.4375 55.539062 183.277344 55.59375 181.121094 55.699219 C 178.964844 55.804688 176.808594 55.964844 174.660156 56.179688 C 172.507812 56.390625 170.367188 56.65625 168.230469 56.972656 C 166.09375 57.292969 163.964844 57.660156 161.84375 58.082031 C 159.726562 58.503906 157.621094 58.980469 155.523438 59.503906 C 153.429688 60.03125 151.347656 60.609375 149.28125 61.234375 C 147.210938 61.863281 145.160156 62.542969 143.128906 63.269531 C 141.09375 64 139.078125 64.777344 137.082031 65.605469 C 135.085938 66.429688 133.113281 67.308594 131.160156 68.230469 C 129.207031 69.15625 127.277344 70.128906 125.375 71.148438 C 123.46875 72.164062 121.589844 73.230469 119.738281 74.34375 C 117.882812 75.453125 116.058594 76.609375 114.265625 77.8125 C 112.46875 79.011719 110.703125 80.257812 108.96875 81.542969 C 107.234375 82.832031 105.53125 84.160156 103.859375 85.53125 C 102.191406 86.902344 100.554688 88.3125 98.957031 89.765625 C 97.355469 91.214844 95.792969 92.707031 94.265625 94.234375 C 92.738281 95.761719 91.25 97.328125 89.796875 98.929688 C 88.347656 100.53125 86.9375 102.167969 85.566406 103.835938 C 84.199219 105.507812 82.871094 107.210938 81.582031 108.945312 C 80.296875 110.683594 79.054688 112.449219 77.855469 114.246094 C 76.65625 116.042969 75.5 117.867188 74.390625 119.71875 C 73.277344 121.574219 72.214844 123.453125 71.199219 125.359375 C 70.179688 127.265625 69.210938 129.195312 68.285156 131.148438 C 67.363281 133.101562 66.488281 135.074219 65.664062 137.070312 C 64.835938 139.066406 64.058594 141.082031 63.332031 143.117188 C 62.605469 145.152344 61.929688 147.203125 61.300781 149.269531 C 60.675781 151.339844 60.101562 153.421875 59.574219 155.515625 C 59.050781 157.613281 58.578125 159.71875 58.15625 161.839844 C 57.738281 163.957031 57.367188 166.085938 57.050781 168.222656 C 56.734375 170.359375 56.472656 172.503906 56.261719 174.652344 C 56.050781 176.804688 55.890625 178.957031 55.785156 181.117188 C 55.679688 183.273438 55.628906 185.433594 55.628906 187.59375 C 55.628906 189.753906 55.683594 191.914062 55.789062 194.070312 C 55.898438 196.230469 56.054688 198.382812 56.269531 200.53125 C 56.480469 202.683594 56.746094 204.828125 57.0625 206.964844 C 57.382812 209.101562 57.75 211.226562 58.171875 213.347656 C 58.59375 215.464844 59.070312 217.574219 59.59375 219.667969 C 60.121094 221.765625 60.699219 223.84375 61.324219 225.914062 C 61.953125 227.980469 62.632812 230.03125 63.359375 232.066406 C 64.085938 234.097656 64.867188 236.113281 65.691406 238.109375 C 66.519531 240.105469 67.394531 242.078125 68.320312 244.03125 C 69.246094 245.984375 70.214844 247.914062 71.234375 249.820312 C 72.253906 251.722656 73.320312 253.601562 74.429688 255.457031 C 75.542969 257.308594 76.699219 259.132812 77.898438 260.929688 C 79.101562 262.726562 80.34375 264.492188 81.632812 266.226562 C 82.917969 267.960938 84.25 269.664062 85.621094 271.332031 C 86.992188 273.003906 88.402344 274.636719 89.851562 276.238281 C 91.304688 277.835938 92.792969 279.402344 94.324219 280.929688 C 95.851562 282.457031 97.414062 283.945312 99.015625 285.394531 C 100.617188 286.847656 102.253906 288.257812 103.925781 289.625 C 105.59375 290.996094 107.296875 292.324219 109.03125 293.609375 C 110.769531 294.898438 112.535156 296.140625 114.332031 297.339844 C 116.128906 298.539062 117.953125 299.695312 119.808594 300.804688 C 121.660156 301.914062 123.539062 302.980469 125.445312 303.996094 C 127.351562 305.015625 129.28125 305.984375 131.234375 306.910156 C 133.1875 307.832031 135.160156 308.707031 137.15625 309.535156 C 139.15625 310.359375 141.167969 311.136719 143.203125 311.863281 C 145.238281 312.589844 147.289062 313.269531 149.355469 313.894531 C 151.425781 314.519531 153.507812 315.097656 155.601562 315.621094 C 157.699219 316.144531 159.804688 316.617188 161.925781 317.039062 C 164.042969 317.460938 166.171875 317.828125 168.308594 318.144531 C 170.445312 318.460938 172.589844 318.726562 174.738281 318.9375 C 176.890625 319.148438 179.042969 319.304688 181.203125 319.410156 C 183.359375 319.515625 185.519531 319.570312 187.679688 319.566406 C 189.839844 319.566406 192 319.515625 194.15625 319.40625 C 196.316406 319.300781 198.46875 319.140625 200.617188 318.929688 C 202.769531 318.71875 204.914062 318.453125 207.050781 318.132812 C 209.1875 317.816406 211.3125 317.445312 213.433594 317.023438 C 215.550781 316.601562 217.660156 316.128906 219.753906 315.601562 C 221.851562 315.078125 223.933594 314.5 226 313.875 C 228.066406 313.246094 230.117188 312.566406 232.152344 311.839844 C 234.183594 311.109375 236.199219 310.332031 238.195312 309.507812 C 240.191406 308.679688 242.164062 307.804688 244.117188 306.878906 C 246.070312 305.953125 248 304.984375 249.90625 303.964844 C 251.8125 302.945312 253.691406 301.878906 255.542969 300.769531 C 257.394531 299.65625 259.21875 298.5 261.015625 297.300781 C 262.8125 296.101562 264.578125 294.855469 266.3125 293.570312 C 268.046875 292.28125 269.75 290.953125 271.417969 289.582031 C 273.089844 288.210938 274.722656 286.800781 276.324219 285.347656 C 277.925781 283.894531 279.488281 282.40625 281.015625 280.878906 C 282.542969 279.351562 284.03125 277.785156 285.484375 276.183594 C 286.933594 274.582031 288.34375 272.949219 289.714844 271.277344 C 291.085938 269.605469 292.414062 267.902344 293.699219 266.167969 C 294.984375 264.433594 296.230469 262.667969 297.429688 260.871094 C 298.628906 259.074219 299.785156 257.25 300.894531 255.394531 C 302.003906 253.542969 303.066406 251.660156 304.085938 249.757812 C 305.105469 247.851562 306.074219 245.921875 307 243.96875 C 307.921875 242.015625 308.796875 240.039062 309.621094 238.042969 C 310.449219 236.046875 311.226562 234.03125 311.953125 231.996094 C 312.679688 229.964844 313.355469 227.914062 313.984375 225.84375 C 314.609375 223.777344 315.1875 221.695312 315.710938 219.601562 C 316.234375 217.503906 316.707031 215.398438 317.128906 213.277344 C 317.550781 211.160156 317.917969 209.03125 318.234375 206.894531 C 318.550781 204.757812 318.816406 202.613281 319.027344 200.460938 C 319.238281 198.3125 319.394531 196.15625 319.5 194 C 319.605469 191.84375 319.660156 189.683594 319.660156 187.523438 C 319.65625 185.363281 319.597656 183.203125 319.488281 181.046875 C 319.378906 178.890625 319.214844 176.738281 319 174.589844 C 318.78125 172.441406 318.515625 170.296875 318.195312 168.164062 C 317.875 166.027344 317.5 163.902344 317.078125 161.785156 C 316.652344 159.664062 316.175781 157.558594 315.648438 155.464844 C 315.121094 153.371094 314.539062 151.292969 313.910156 149.226562 C 313.28125 147.160156 312.601562 145.113281 311.871094 143.078125 C 311.140625 141.046875 310.359375 139.035156 309.53125 137.039062 C 308.703125 135.046875 307.828125 133.070312 306.902344 131.121094 C 305.976562 129.167969 305.003906 127.242188 303.984375 125.339844 C 302.964844 123.433594 301.898438 121.558594 300.785156 119.707031 C 299.675781 117.855469 298.515625 116.03125 297.316406 114.238281 C 296.117188 112.441406 294.871094 110.675781 293.582031 108.945312 C 292.296875 107.210938 290.964844 105.507812 289.59375 103.839844 C 288.226562 102.171875 286.8125 100.539062 285.363281 98.9375 C 283.910156 97.339844 282.421875 95.773438 280.894531 94.25 C 279.367188 92.722656 277.804688 91.234375 276.203125 89.785156 C 274.601562 88.332031 272.96875 86.921875 271.296875 85.554688 C 269.628906 84.183594 267.925781 82.855469 266.191406 81.570312 C 264.457031 80.28125 262.691406 79.039062 260.898438 77.839844 C 259.101562 76.640625 257.277344 75.484375 255.425781 74.371094 C 253.574219 73.261719 251.695312 72.195312 249.792969 71.179688 C 247.886719 70.160156 245.960938 69.1875 244.007812 68.265625 C 242.054688 67.339844 240.082031 66.464844 238.089844 65.636719 C 236.09375 64.808594 234.078125 64.03125 232.046875 63.300781 C 230.015625 62.570312 227.964844 61.894531 225.898438 61.265625 C 223.832031 60.636719 221.753906 60.058594 219.65625 59.53125 C 217.5625 59.003906 215.457031 58.53125 213.339844 58.105469 C 211.222656 57.683594 209.09375 57.3125 206.960938 56.992188 C 204.824219 56.671875 202.679688 56.40625 200.53125 56.191406 C 198.382812 55.976562 196.230469 55.816406 194.074219 55.707031 C 191.917969 55.597656 189.757812 55.542969 187.597656 55.539062 Z M 224.054688 298.910156 C 218.328125 300.078125 216.214844 296.554688 216.214844 293.519531 C 216.214844 289.644531 216.382812 277.339844 216.382812 262.015625 C 216.382812 251.382812 212.769531 244.425781 208.636719 240.886719 C 234.078125 238.015625 260.859375 228.339844 260.859375 184.363281 C 260.902344 181.542969 260.679688 178.746094 260.1875 175.972656 C 259.695312 173.195312 258.945312 170.492188 257.933594 167.859375 C 256.925781 165.226562 255.675781 162.714844 254.183594 160.324219 C 252.695312 157.929688 250.988281 155.699219 249.070312 153.632812 C 250.242188 150.761719 254.28125 139.050781 247.964844 123.253906 C 247.964844 123.253906 238.363281 120.125 216.472656 134.949219 C 211.8125 133.695312 207.089844 132.75 202.300781 132.117188 C 197.515625 131.484375 192.707031 131.167969 187.878906 131.167969 C 183.050781 131.167969 178.242188 131.484375 173.457031 132.117188 C 168.671875 132.75 163.945312 133.695312 159.285156 134.949219 C 137.394531 120.308594 127.78125 123.253906 127.78125 123.253906 C 121.554688 138.992188 125.519531 150.703125 126.6875 153.632812 C 124.78125 155.707031 123.089844 157.941406 121.613281 160.335938 C 120.132812 162.730469 118.890625 165.246094 117.890625 167.875 C 116.890625 170.507812 116.144531 173.210938 115.65625 175.980469 C 115.167969 178.753906 114.949219 181.546875 114.992188 184.363281 C 114.992188 228.15625 141.605469 238.015625 167.03125 240.886719 C 163.75 243.742188 160.710938 248.707031 159.710938 256.210938 C 153.132812 259.160156 136.710938 264.035156 126.445312 246.777344 C 124.257812 243.316406 117.847656 234.898438 108.839844 234.992188 C 99.238281 235.15625 104.964844 240.460938 108.929688 242.585938 C 113.804688 245.367188 119.367188 255.46875 120.71875 258.75 C 122.980469 265.234375 130.394531 277.523438 159.117188 272.222656 C 159.117188 281.820312 159.285156 290.84375 159.285156 293.488281 C 159.285156 296.523438 157.1875 299.882812 151.445312 298.878906 C 149.324219 298.167969 147.226562 297.398438 145.148438 296.5625 C 143.074219 295.730469 141.023438 294.835938 139 293.878906 C 136.976562 292.925781 134.980469 291.914062 133.019531 290.839844 C 131.054688 289.769531 129.121094 288.640625 127.226562 287.457031 C 125.328125 286.273438 123.464844 285.03125 121.640625 283.738281 C 119.816406 282.441406 118.03125 281.097656 116.285156 279.699219 C 114.539062 278.296875 112.832031 276.847656 111.171875 275.351562 C 109.511719 273.851562 107.894531 272.304688 106.328125 270.710938 C 104.757812 269.117188 103.234375 267.476562 101.761719 265.792969 C 100.285156 264.109375 98.863281 262.386719 97.492188 260.617188 C 96.117188 258.851562 94.796875 257.046875 93.53125 255.199219 C 92.265625 253.355469 91.054688 251.476562 89.898438 249.558594 C 88.742188 247.644531 87.644531 245.695312 86.601562 243.714844 C 85.558594 241.734375 84.578125 239.726562 83.652344 237.6875 C 82.730469 235.652344 81.867188 233.585938 81.066406 231.5 C 80.261719 229.410156 79.523438 227.300781 78.84375 225.167969 C 78.164062 223.035156 77.550781 220.886719 76.996094 218.71875 C 76.445312 216.550781 75.957031 214.367188 75.53125 212.167969 C 75.109375 209.972656 74.75 207.765625 74.457031 205.546875 C 74.160156 203.328125 73.933594 201.105469 73.769531 198.871094 C 73.605469 196.640625 73.507812 194.40625 73.472656 192.171875 C 73.441406 189.933594 73.472656 187.695312 73.574219 185.460938 C 73.671875 183.226562 73.835938 180.996094 74.066406 178.769531 C 74.296875 176.542969 74.589844 174.328125 74.953125 172.117188 C 75.3125 169.910156 75.734375 167.714844 76.226562 165.53125 C 76.714844 163.347656 77.265625 161.179688 77.882812 159.03125 C 78.5 156.878906 79.179688 154.746094 79.917969 152.636719 C 80.660156 150.527344 81.464844 148.4375 82.328125 146.375 C 83.191406 144.308594 84.117188 142.273438 85.101562 140.265625 C 86.082031 138.253906 87.125 136.277344 88.226562 134.328125 C 89.324219 132.378906 90.480469 130.464844 91.695312 128.582031 C 92.90625 126.703125 94.171875 124.859375 95.492188 123.054688 C 96.8125 121.246094 98.1875 119.480469 99.609375 117.753906 C 101.035156 116.03125 102.507812 114.347656 104.03125 112.707031 C 105.554688 111.070312 107.125 109.476562 108.742188 107.929688 C 110.359375 106.382812 112.019531 104.886719 113.722656 103.4375 C 115.429688 101.988281 117.175781 100.589844 118.960938 99.242188 C 120.746094 97.894531 122.574219 96.601562 124.433594 95.363281 C 126.296875 94.125 128.195312 92.941406 130.128906 91.8125 C 132.058594 90.683594 134.023438 89.613281 136.019531 88.601562 C 138.015625 87.585938 140.039062 86.632812 142.089844 85.738281 C 144.140625 84.847656 146.214844 84.011719 148.316406 83.242188 C 150.414062 82.46875 152.535156 81.757812 154.679688 81.113281 C 156.820312 80.464844 158.976562 79.878906 161.15625 79.359375 C 163.332031 78.839844 165.519531 78.382812 167.722656 77.992188 C 169.925781 77.597656 172.136719 77.269531 174.359375 77.007812 C 176.582031 76.746094 178.808594 76.550781 181.042969 76.417969 C 183.277344 76.289062 185.511719 76.222656 187.75 76.222656 C 189.988281 76.222656 192.222656 76.289062 194.457031 76.417969 C 196.691406 76.550781 198.917969 76.746094 201.140625 77.007812 C 203.363281 77.269531 205.574219 77.597656 207.777344 77.992188 C 209.980469 78.382812 212.171875 78.839844 214.347656 79.359375 C 216.523438 79.878906 218.679688 80.464844 220.824219 81.113281 C 222.964844 81.757812 225.085938 82.46875 227.1875 83.242188 C 229.285156 84.011719 231.363281 84.847656 233.414062 85.738281 C 235.464844 86.632812 237.488281 87.585938 239.480469 88.601562 C 241.476562 89.613281 243.441406 90.683594 245.375 91.8125 C 247.304688 92.941406 249.203125 94.125 251.066406 95.363281 C 252.929688 96.601562 254.753906 97.894531 256.539062 99.242188 C 258.328125 100.589844 260.074219 101.988281 261.777344 103.4375 C 263.480469 104.886719 265.144531 106.382812 266.757812 107.929688 C 268.375 109.476562 269.945312 111.070312 271.46875 112.707031 C 272.992188 114.347656 274.464844 116.03125 275.890625 117.753906 C 277.316406 119.480469 278.6875 121.246094 280.007812 123.054688 C 281.328125 124.859375 282.59375 126.703125 283.808594 128.582031 C 285.019531 130.464844 286.175781 132.378906 287.277344 134.328125 C 288.375 136.273438 289.417969 138.253906 290.402344 140.265625 C 291.386719 142.273438 292.308594 144.308594 293.171875 146.375 C 294.035156 148.4375 294.839844 150.527344 295.582031 152.636719 C 296.324219 154.746094 297 156.878906 297.617188 159.03125 C 298.234375 161.179688 298.785156 163.347656 299.277344 165.53125 C 299.765625 167.714844 300.191406 169.910156 300.550781 172.117188 C 300.910156 174.328125 301.203125 176.542969 301.433594 178.769531 C 301.664062 180.996094 301.828125 183.226562 301.925781 185.460938 C 302.027344 187.695312 302.058594 189.933594 302.027344 192.171875 C 301.996094 194.40625 301.894531 196.640625 301.734375 198.871094 C 301.570312 201.105469 301.339844 203.328125 301.046875 205.546875 C 300.75 207.765625 300.390625 209.972656 299.96875 212.167969 C 299.542969 214.367188 299.054688 216.550781 298.503906 218.71875 C 297.953125 220.886719 297.335938 223.035156 296.65625 225.167969 C 295.980469 227.300781 295.238281 229.410156 294.4375 231.5 C 293.632812 233.585938 292.769531 235.652344 291.847656 237.6875 C 290.921875 239.726562 289.941406 241.734375 288.898438 243.714844 C 287.855469 245.695312 286.757812 247.644531 285.601562 249.558594 C 284.445312 251.476562 283.234375 253.355469 281.96875 255.199219 C 280.703125 257.046875 279.382812 258.851562 278.011719 260.617188 C 276.636719 262.386719 275.214844 264.109375 273.742188 265.792969 C 272.265625 267.476562 270.746094 269.117188 269.175781 270.710938 C 267.605469 272.304688 265.988281 273.851562 264.328125 275.351562 C 262.667969 276.847656 260.964844 278.296875 259.21875 279.699219 C 257.472656 281.097656 255.6875 282.441406 253.859375 283.738281 C 252.035156 285.03125 250.175781 286.273438 248.277344 287.457031 C 246.378906 288.640625 244.445312 289.769531 242.484375 290.839844 C 240.519531 291.914062 238.523438 292.925781 236.5 293.878906 C 234.476562 294.835938 232.425781 295.730469 230.351562 296.5625 C 228.273438 297.398438 226.175781 298.167969 224.054688 298.878906 Z M 224.054688 298.910156 " fill-opacity="1" fill-rule="evenodd"/></g></svg>