<svg xmlns="http://www.w3.org/2000/svg" xmlns:xlink="http://www.w3.org/1999/xlink" width="500" zoomAndPan="magnify" viewBox="0 0 375 374.999991" height="500" preserveAspectRatio="xMidYMid meet" version="1.0"><defs><clipPath id="a91d2870d4"><path d="M 59.890625 59.890625 L 314.890625 59.890625 L 314.890625 314.890625 L 59.890625 314.890625 Z M 59.890625 59.890625 " clip-rule="nonzero"/></clipPath></defs><g clip-path="url(#a91d2870d4)"><path fill="#000000" d="M 314.867188 187.378906 C 314.804688 257.539062 258.167969 314.890625 187.3125 314.847656 C 116.933594 314.804688 59.910156 257.996094 59.933594 187.3125 C 59.953125 116.546875 117.214844 59.933594 187.421875 59.910156 C 257.777344 59.890625 314.867188 117.023438 314.867188 187.378906 Z M 209.417969 215.296875 C 209.417969 199.585938 209.398438 183.898438 209.441406 168.191406 C 209.460938 162.246094 207.34375 157.214844 202.957031 153.300781 C 196.042969 147.121094 188.003906 145.824219 179.382812 148.871094 C 171.152344 151.789062 165.640625 159.699219 165.683594 168.644531 C 165.855469 199.933594 165.769531 231.222656 165.726562 262.511719 C 165.726562 280.1875 180.875 283.167969 188.113281 283.148438 C 199.003906 283.101562 209.699219 274.332031 209.484375 261.734375 C 209.203125 246.261719 209.417969 230.769531 209.417969 215.296875 Z M 210.910156 114.902344 C 210.886719 101.851562 200.472656 91.460938 187.398438 91.460938 C 174.304688 91.460938 163.847656 101.9375 163.867188 115.035156 C 163.890625 127.976562 174.457031 138.523438 187.421875 138.523438 C 200.472656 138.523438 210.910156 128.019531 210.910156 114.902344 Z M 210.910156 114.902344 " fill-opacity="1" fill-rule="nonzero"/></g></svg>