<svg xmlns="http://www.w3.org/2000/svg" xmlns:xlink="http://www.w3.org/1999/xlink" width="500" zoomAndPan="magnify" viewBox="0 0 375 374.999991" height="500" preserveAspectRatio="xMidYMid meet" version="1.0"><defs><clipPath id="d133d52964"><path d="M 95.585938 105 L 279.335938 105 L 279.335938 270 L 95.585938 270 Z M 95.585938 105 " clip-rule="nonzero"/></clipPath></defs><g clip-path="url(#d133d52964)"><path fill="#000000" d="M 231.351562 166.382812 L 132.132812 109.089844 C 115.898438 99.71875 95.613281 111.433594 95.613281 130.175781 L 95.613281 244.761719 C 95.613281 263.503906 115.898438 275.21875 132.132812 265.847656 L 231.351562 208.554688 C 247.582031 199.183594 247.582031 175.753906 231.351562 166.382812 Z M 265.890625 106.933594 C 258.480469 106.933594 252.46875 112.941406 252.46875 120.355469 L 252.46875 254.582031 C 252.46875 261.996094 258.480469 268.003906 265.890625 268.003906 C 273.304688 268.003906 279.3125 261.996094 279.3125 254.582031 L 279.3125 120.355469 C 279.3125 112.941406 273.304688 106.933594 265.890625 106.933594 Z M 265.890625 106.933594 " fill-opacity="1" fill-rule="nonzero"/></g></svg>