<svg xmlns="http://www.w3.org/2000/svg" xmlns:xlink="http://www.w3.org/1999/xlink" width="500" zoomAndPan="magnify" viewBox="0 0 375 374.999991" height="500" preserveAspectRatio="xMidYMid meet" version="1.0"><defs><clipPath id="85dcfd88c3"><path d="M 121.875 113 L 253.125 113 L 253.125 262.5 L 121.875 262.5 Z M 121.875 113 " clip-rule="nonzero"/></clipPath></defs><g clip-path="url(#85dcfd88c3)"><path fill="#06bb00" d="M 248.628906 179.636719 L 135.820312 114.511719 C 132.957031 112.859375 129.433594 112.859375 126.570312 114.511719 C 123.710938 116.164062 121.945312 119.214844 121.945312 122.523438 L 121.945312 252.785156 C 121.945312 256.089844 123.710938 259.144531 126.570312 260.792969 C 128.003906 261.632812 129.601562 262.035156 131.195312 262.035156 C 132.792969 262.035156 134.390625 261.617188 135.820312 260.792969 L 248.628906 195.667969 C 251.496094 194.015625 253.25 190.960938 253.25 187.65625 C 253.25 184.351562 251.492188 181.292969 248.628906 179.636719 Z M 248.628906 179.636719 " fill-opacity="1" fill-rule="nonzero"/></g></svg>